/* XPM */
static char * C:\Users\Ian\Documents\Queercoin_notLGBTcoin\pixmaps\pixmaps\new imgs\bitcoin32_xpm[] = {
"32 32 743 2",
"  	c None",
". 	c #F9E18D",
"+ 	c #F8E088",
"@ 	c #F6DE81",
"# 	c #F6DA7B",
"$ 	c #F7DA75",
"% 	c #F4E290",
"& 	c #F2DE89",
"* 	c #EBD77B",
"= 	c #E9D36F",
"- 	c #E8CF67",
"; 	c #E9CE60",
"> 	c #E9CB5B",
", 	c #E9C856",
"' 	c #ECC753",
") 	c #EFC752",
"! 	c #F3C953",
"~ 	c #F3C954",
"{ 	c #F4E291",
"] 	c #EBD87E",
"^ 	c #E7D16A",
"/ 	c #EAD25D",
"( 	c #EFD454",
"_ 	c #F4D751",
": 	c #F7D74E",
"< 	c #F8D64B",
"[ 	c #F8D348",
"} 	c #F7CF44",
"| 	c #F4C93F",
"1 	c #F0C13A",
"2 	c #ECBA37",
"3 	c #EBB838",
"4 	c #EFBF47",
"5 	c #F4CA5E",
"6 	c #F7E592",
"7 	c #EED981",
"8 	c #E8D16A",
"9 	c #EBCF53",
"0 	c #F5D64E",
"a 	c #FBDC4E",
"b 	c #FDDA4B",
"c 	c #FDD848",
"d 	c #FDD545",
"e 	c #FED242",
"f 	c #FED03E",
"g 	c #FECD3C",
"h 	c #FDCA39",
"i 	c #FDC837",
"j 	c #FAC334",
"k 	c #F2B930",
"l 	c #EBB432",
"m 	c #EBBD4B",
"n 	c #F0CC71",
"o 	c #F5E08A",
"p 	c #E9D273",
"q 	c #EACC56",
"r 	c #F6D44B",
"s 	c #FCD849",
"t 	c #FDD647",
"u 	c #FDD443",
"v 	c #FED140",
"w 	c #FECF3D",
"x 	c #FECC3A",
"y 	c #FDC938",
"z 	c #FDC736",
"A 	c #FCC635",
"B 	c #FCC333",
"C 	c #FBC232",
"D 	c #FAC031",
"E 	c #F9BE30",
"F 	c #F6B92E",
"G 	c #EDB233",
"H 	c #E9BC58",
"I 	c #ECD18C",
"J 	c #F4DD82",
"K 	c #EDD36F",
"L 	c #ECC84B",
"M 	c #FAD143",
"N 	c #FDD342",
"O 	c #FED03F",
"P 	c #FDCB3A",
"Q 	c #FDC93B",
"R 	c #FDC53D",
"S 	c #FCC23F",
"T 	c #FCBF3E",
"U 	c #FBBD3C",
"V 	c #FABD37",
"W 	c #F9BC32",
"X 	c #F7BB2F",
"Y 	c #F6B82E",
"Z 	c #F5B62D",
"` 	c #F3B42C",
" .	c #F2B12B",
"..	c #EAAB2D",
"+.	c #E5B75B",
"@.	c #EACD8B",
"#.	c #F8DD7F",
"$.	c #EACB63",
"%.	c #EDC343",
"&.	c #F9CB3B",
"*.	c #FDCA38",
"=.	c #FDC63A",
"-.	c #FCC046",
";.	c #FCB151",
">.	c #FCA052",
",.	c #FC944F",
"'.	c #FD8D48",
").	c #FC8B42",
"!.	c #FB8F3C",
"~.	c #F99736",
"{.	c #F6A431",
"].	c #F3AC2C",
"^.	c #F0AE2A",
"/.	c #EFAC29",
"(.	c #EDA928",
"_.	c #ECA727",
":.	c #E6A42D",
"<.	c #E3B355",
"[.	c #EDCD7D",
"}.	c #EECC62",
"|.	c #EBBE3F",
"1.	c #FAC636",
"2.	c #FCC534",
"3.	c #FBC334",
"4.	c #FBC03F",
"5.	c #FBAE4F",
"6.	c #FC9455",
"7.	c #FD7F4D",
"8.	c #FD7441",
"9.	c #FD7039",
"0.	c #FE6D32",
"a.	c #FE6B2C",
"b.	c #FD6826",
"c.	c #FD6822",
"d.	c #FB7122",
"e.	c #F78323",
"f.	c #F09724",
"g.	c #EAA126",
"h.	c #E8A226",
"i.	c #E69F25",
"j.	c #E49D24",
"k.	c #DC9726",
"l.	c #E0AE49",
"m.	c #EAC35F",
"n.	c #F1CE62",
"o.	c #E9BC43",
"p.	c #F6BF33",
"q.	c #FBC333",
"r.	c #F9BF31",
"s.	c #F7C145",
"t.	c #F4AD55",
"u.	c #F59150",
"v.	c #F78545",
"w.	c #FD8639",
"x.	c #FE8431",
"y.	c #FE812B",
"z.	c #FE7F25",
"A.	c #FD7C20",
"B.	c #FD7A1C",
"C.	c #F8761C",
"D.	c #F17120",
"E.	c #F0711F",
"F.	c #EB7D21",
"G.	c #E49224",
"H.	c #E39A23",
"I.	c #E19823",
"J.	c #E09622",
"K.	c #DE9422",
"L.	c #DA9527",
"M.	c #E4AE3C",
"N.	c #EABE47",
"O.	c #ECB330",
"P.	c #F8BD30",
"Q.	c #F7BC2F",
"R.	c #F5BC3D",
"S.	c #DCA667",
"T.	c #B47687",
"U.	c #AB6D85",
"V.	c #C18167",
"W.	c #F3A832",
"X.	c #FDAD24",
"Y.	c #FDAB1F",
"Z.	c #FDA91C",
"`.	c #FCA719",
" +	c #F8A31B",
".+	c #C38341",
"++	c #835F6D",
"@+	c #785A71",
"#+	c #715871",
"$+	c #936E56",
"%+	c #D99225",
"&+	c #DE9221",
"*+	c #DC9021",
"=+	c #DB8E21",
"-+	c #D88C20",
";+	c #DA9725",
">+	c #E5B13D",
",+	c #F2C751",
"'+	c #E7B134",
")+	c #F2B42C",
"!+	c #F4B62D",
"~+	c #F3B32C",
"{+	c #F3B431",
"]+	c #F6BC46",
"^+	c #D0926C",
"/+	c #8E50AA",
"(+	c #864EA8",
"_+	c #B1756F",
":+	c #D79445",
"<+	c #ECA32C",
"[+	c #FCAE1A",
"}+	c #FBAD18",
"|+	c #FAAA16",
"1+	c #F6A718",
"2+	c #C78A3A",
"3+	c #85656A",
"4+	c #494593",
"5+	c #2635A8",
"6+	c #60547A",
"7+	c #D99022",
"8+	c #DF901C",
"9+	c #D98C20",
"0+	c #D88B20",
"a+	c #D48A1E",
"b+	c #DD9F2C",
"c+	c #EDBD41",
"d+	c #E7AA2B",
"e+	c #F1B02B",
"f+	c #EFAC2A",
"g+	c #F2B63A",
"h+	c #F9BD3F",
"i+	c #D4915F",
"j+	c #9D5A9D",
"k+	c #97599A",
"l+	c #9D608D",
"m+	c #955E8D",
"n+	c #C38254",
"o+	c #E69C2C",
"p+	c #E0972F",
"q+	c #E2982B",
"r+	c #EC9E1E",
"s+	c #EB9D1D",
"t+	c #A97651",
"u+	c #5A4D8B",
"v+	c #414198",
"w+	c #65547A",
"x+	c #DC921E",
"y+	c #E49416",
"z+	c #D98C1E",
"A+	c #D5891E",
"B+	c #D48E21",
"C+	c #DBA33E",
"D+	c #E7B238",
"E+	c #E7A528",
"F+	c #EDA828",
"G+	c #EBA627",
"H+	c #EAA82B",
"I+	c #F4C539",
"J+	c #FCD129",
"K+	c #E9BA39",
"L+	c #D2A155",
"M+	c #B57B78",
"N+	c #8C4FA9",
"O+	c #8E569D",
"P+	c #A46C79",
"Q+	c #976381",
"R+	c #875C8B",
"S+	c #845B87",
"T+	c #956771",
"U+	c #9A6E66",
"V+	c #6B5589",
"W+	c #8E7863",
"X+	c #827067",
"Y+	c #706175",
"Z+	c #DCA71E",
"`+	c #E8AC11",
" @	c #DB951A",
".@	c #D98D1F",
"+@	c #DA8D20",
"@@	c #DB8E1F",
"#@	c #D38B1F",
"$@	c #D79A35",
"%@	c #F2C95D",
"&@	c #E2AA38",
"*@	c #E5A026",
"=@	c #E7A025",
"-@	c #E59E24",
";@	c #E7A82C",
">@	c #F6D630",
",@	c #FDE31B",
"'@	c #FBE119",
")@	c #F1D126",
"!@	c #BE8970",
"~@	c #A16594",
"{@	c #8F55A3",
"]@	c #946292",
"^@	c #AD8469",
"/@	c #BD9A4E",
"(@	c #AF8F59",
"_@	c #876B7E",
":@	c #634C9E",
"<@	c #7F697C",
"[@	c #D6B625",
"}@	c #BDA438",
"|@	c #A6914A",
"1@	c #E3C017",
"2@	c #EAC40F",
"3@	c #E0A616",
"4@	c #DD921F",
"5@	c #DE9320",
"6@	c #E09520",
"7@	c #D78E1E",
"8@	c #D39331",
"9@	c #EFCC6F",
"0@	c #DFA73E",
"a@	c #E09924",
"b@	c #E29923",
"c@	c #E09723",
"d@	c #E6A92E",
"e@	c #F8DA27",
"f@	c #FBE017",
"g@	c #FADE16",
"h@	c #F7D918",
"i@	c #E6BF31",
"j@	c #C28E66",
"k@	c #A36890",
"l@	c #CA9F4C",
"m@	c #EAC81C",
"n@	c #F0CE13",
"o@	c #EDCB14",
"p@	c #D4B32C",
"q@	c #8D7175",
"r@	c #82677F",
"s@	c #DAB722",
"t@	c #E8C413",
"u@	c #E4C115",
"v@	c #EBC50F",
"w@	c #E2B014",
"x@	c #E19A1E",
"y@	c #E39A20",
"z@	c #E59D20",
"A@	c #DE971E",
"B@	c #D2912C",
"C@	c #ECCD82",
"D@	c #DCA547",
"E@	c #DC9323",
"F@	c #DD9322",
"G@	c #DC9122",
"H@	c #E1A82E",
"I@	c #E6D221",
"J@	c #E7D515",
"K@	c #E6D214",
"L@	c #E5D113",
"M@	c #DFC61D",
"N@	c #BB8173",
"O@	c #B37E70",
"P@	c #D9C01A",
"Q@	c #DEC610",
"R@	c #DDC510",
"S@	c #DCC410",
"T@	c #DAC111",
"U@	c #AF9641",
"V@	c #785C8B",
"W@	c #B79C3A",
"X@	c #D9BE0F",
"Y@	c #D8BD0F",
"Z@	c #D8BE0F",
"`@	c #D7B012",
" #	c #E4A21E",
".#	c #E9A321",
"+#	c #EBA621",
"@#	c #E6A221",
"##	c #D8992D",
"$#	c #EDD295",
"%#	c #DAA44F",
"&#	c #D98E22",
"*#	c #DA8E21",
"=#	c #C99C2B",
"-#	c #9BB11E",
";#	c #90AF13",
">#	c #8FAC12",
",#	c #8EAB12",
"'#	c #919F23",
")#	c #9D6B7F",
"!#	c #937A5D",
"~#	c #88A211",
"{#	c #87A210",
"]#	c #86A00F",
"^#	c #869F0F",
"/#	c #859E0F",
"(#	c #7E8B2D",
"_#	c #695786",
":#	c #787B47",
"<#	c #849B0F",
"[#	c #849C0F",
"}#	c #859D0F",
"|#	c #9F9D13",
"1#	c #E1A61F",
"2#	c #EFAC23",
"3#	c #F1AF24",
"4#	c #EDAC24",
"5#	c #E0A631",
"6#	c #EED69C",
"7#	c #DAA655",
"8#	c #D78B21",
"9#	c #C69729",
"0#	c #85A41F",
"a#	c #73A012",
"b#	c #719E11",
"c#	c #709B11",
"d#	c #74931E",
"e#	c #966B78",
"f#	c #8F7069",
"g#	c #6E9315",
"h#	c #6B9410",
"i#	c #6A930F",
"j#	c #6A9110",
"k#	c #699110",
"l#	c #6B7C3A",
"m#	c #6B548A",
"n#	c #687841",
"o#	c #69920F",
"p#	c #6B940F",
"q#	c #6D970F",
"r#	c #6F9A10",
"s#	c #979D16",
"t#	c #E8B024",
"u#	c #F5B528",
"v#	c #F7B82A",
"w#	c #F1B42A",
"x#	c #E7B039",
"y#	c #EFD493",
"z#	c #DBAA57",
"A#	c #D68B22",
"B#	c #CE9326",
"C#	c #8FA021",
"D#	c #709C11",
"E#	c #6E9A10",
"F#	c #6D980F",
"G#	c #6D9512",
"H#	c #8B7759",
"I#	c #A0628C",
"J#	c #7D813D",
"K#	c #6A9111",
"L#	c #6A9011",
"M#	c #788039",
"N#	c #797A44",
"O#	c #75656D",
"P#	c #785395",
"Q#	c #777A47",
"R#	c #6F9515",
"S#	c #6F9A11",
"T#	c #729E12",
"U#	c #74A013",
"V#	c #ACA61C",
"W#	c #F2B92B",
"X#	c #F9BE2E",
"Y#	c #FBC131",
"Z#	c #F4BB30",
"`#	c #EAB83F",
" $	c #EFCF7F",
".$	c #E1B153",
"+$	c #D68D23",
"@$	c #DB8F20",
"#$	c #D79224",
"$$	c #A39336",
"%$	c #707F3F",
"&$	c #6C7B3E",
"*$	c #6B793D",
"=$	c #6B783D",
"-$	c #776D58",
";$	c #9D579A",
">$	c #9E618A",
",$	c #837454",
"'$	c #7B744F",
")$	c #945E8A",
"!$	c #9F589F",
"~$	c #9351A5",
"{$	c #9751A8",
"]$	c #976289",
"^$	c #7B7B52",
"/$	c #758642",
"($	c #778A43",
"_$	c #7F8F3C",
":$	c #C8AB2F",
"<$	c #FAC234",
"[$	c #FDC638",
"}$	c #FDC83C",
"|$	c #F2BE39",
"1$	c #E7B844",
"2$	c #E5B64B",
"3$	c #D89323",
"4$	c #DF9520",
"5$	c #E09721",
"6$	c #C38C45",
"7$	c #7E5D7F",
"8$	c #6A4B88",
"9$	c #694A88",
"0$	c #694988",
"a$	c #794796",
"b$	c #944DA3",
"c$	c #9F53A4",
"d$	c #9A52A3",
"e$	c #994EAB",
"f$	c #A251AE",
"g$	c #B052B3",
"h$	c #B254B1",
"i$	c #9A56A5",
"j$	c #7A5D91",
"k$	c #79618F",
"l$	c #7A6490",
"m$	c #9A7C6F",
"n$	c #E7B845",
"o$	c #FDCC45",
"p$	c #FECF4B",
"q$	c #FACE4F",
"r$	c #ECBA40",
"s$	c #DFAE46",
"t$	c #E9B948",
"u$	c #DD9C25",
"v$	c #E1991F",
"w$	c #E69F20",
"x$	c #E19F2B",
"y$	c #A67665",
"z$	c #714A8C",
"A$	c #694391",
"B$	c #694491",
"C$	c #704693",
"D$	c #7D4B99",
"E$	c #824D9D",
"F$	c #7F4F9C",
"G$	c #9352A2",
"H$	c #B956B1",
"I$	c #BE57B3",
"J$	c #AD59AC",
"K$	c #875E9F",
"L$	c #7B619D",
"M$	c #856A90",
"N$	c #C5A067",
"O$	c #FAD055",
"P$	c #FDD55D",
"Q$	c #FDD865",
"R$	c #F4CB5E",
"S$	c #E4AE41",
"T$	c #E0A42A",
"U$	c #E19D1F",
"V$	c #ECA822",
"W$	c #EEAB23",
"X$	c #D79D3C",
"Y$	c #946772",
"Z$	c #6F458C",
"`$	c #6F438E",
" %	c #70458E",
".%	c #72488F",
"+%	c #734B8F",
"@%	c #764E91",
"#%	c #795292",
"$%	c #7F5695",
"%%	c #A558A3",
"&%	c #B95BAB",
"*%	c #A65DA5",
"=%	c #B05EA9",
"-%	c #9162A1",
";%	c #81679A",
">%	c #AD907D",
",%	c #EECA6C",
"'%	c #FEDB72",
")%	c #FDDD7B",
"!%	c #FCDD7F",
"~%	c #E9BC59",
"{%	c #D8A03E",
"]%	c #E1A736",
"^%	c #E19E20",
"/%	c #F3B225",
"(%	c #F5B527",
"_%	c #F4B62A",
":%	c #D89D42",
"<%	c #B46961",
"[%	c #AC4D6E",
"}%	c #AE4B72",
"|%	c #B14F73",
"1%	c #B35274",
"2%	c #B65676",
"3%	c #B85A77",
"4%	c #BB5D79",
"5%	c #CA5F80",
"6%	c #CC6184",
"7%	c #BD6480",
"8%	c #C26683",
"9%	c #B86D81",
"0%	c #BE917E",
"a%	c #E7C87A",
"b%	c #FDE086",
"c%	c #FEE28F",
"d%	c #FDE597",
"e%	c #F3D384",
"f%	c #DBA64B",
"g%	c #CC9844",
"h%	c #DD9E2D",
"i%	c #E8A825",
"j%	c #F7BA2B",
"k%	c #F9BD2E",
"l%	c #FABF30",
"m%	c #FAC033",
"n%	c #EEAA3C",
"o%	c #DE7F4B",
"p%	c #D85E5A",
"q%	c #DC5762",
"r%	c #DE5A65",
"s%	c #E05E66",
"t%	c #E16068",
"u%	c #E2636A",
"v%	c #E2656D",
"w%	c #E16770",
"x%	c #DC696E",
"y%	c #D7766D",
"z%	c #DFA079",
"A%	c #F0CF8B",
"B%	c #FDE59A",
"C%	c #FEE8A2",
"D%	c #FDEAA9",
"E%	c #F8E4A5",
"F%	c #E3B868",
"G%	c #D09944",
"H%	c #D69C3B",
"I%	c #DB9B29",
"J%	c #EFB42D",
"K%	c #FCC537",
"L%	c #FDC73B",
"M%	c #FDCA3F",
"N%	c #FCCC45",
"O%	c #F6C34B",
"P%	c #E9A653",
"Q%	c #E1885B",
"R%	c #DE7661",
"S%	c #DE6E65",
"T%	c #DE6D68",
"U%	c #DE6F6B",
"V%	c #DC756D",
"W%	c #DB8271",
"X%	c #DD9A7A",
"Y%	c #E8BF8B",
"Z%	c #F8E1A1",
"`%	c #FDEAAB",
" &	c #FEECB2",
".&	c #FDEEB7",
"+&	c #F9E9B2",
"@&	c #E7C47C",
"#&	c #D19A44",
"$&	c #D09539",
"%&	c #DD9E2C",
"&&	c #F2BE3F",
"*&	c #FCCF4F",
"=&	c #FDD356",
"-&	c #FDD55E",
";&	c #FDD867",
">&	c #FBD86E",
",&	c #F7D275",
"'&	c #F1C879",
")&	c #EBBD7B",
"!&	c #E7B87F",
"~&	c #E8BA85",
"{&	c #EBC58F",
"]&	c #F1D49C",
"^&	c #F8E2A9",
"/&	c #FCEBB3",
"(&	c #FDEEBA",
"_&	c #FDF0BE",
":&	c #FDF2C3",
"<&	c #FAEEBF",
"[&	c #E9CC88",
"}&	c #D5A756",
"|&	c #D39B3C",
"1&	c #E3AE3E",
"2&	c #F2C655",
"3&	c #FAD76E",
"4&	c #FDE084",
"5&	c #FEE28C",
"6&	c #FEE494",
"7&	c #FEE69C",
"8&	c #FEE9A4",
"9&	c #FDECB1",
"0&	c #FEEEB7",
"a&	c #FDF0BC",
"b&	c #FDF1C0",
"c&	c #FDF3C4",
"d&	c #FDF4C8",
"e&	c #FCF4C9",
"f&	c #F6EAB8",
"g&	c #E8CD87",
"h&	c #D7AA53",
"i&	c #DEAC45",
"j&	c #E9BA49",
"k&	c #F1CA60",
"l&	c #F7D985",
"m&	c #FCE59D",
"n&	c #FEE9A6",
"o&	c #FEEBAD",
"p&	c #FEEDB4",
"q&	c #FEEFB9",
"r&	c #FDF2C2",
"s&	c #FDF3C6",
"t&	c #FDF5C9",
"u&	c #FDF6CB",
"v&	c #FCF7CC",
"w&	c #F8F1C3",
"x&	c #EFDDA1",
"y&	c #E3C474",
"z&	c #D7AF58",
"A&	c #E8BA49",
"B&	c #EBC059",
"C&	c #EECC77",
"D&	c #F3D996",
"E&	c #F8E5AE",
"F&	c #FAECBA",
"G&	c #FAF0C1",
"H&	c #FBF2C5",
"I&	c #FAF3C7",
"J&	c #FAF2C6",
"K&	c #F8F1C2",
"L&	c #F4EAB5",
"M&	c #EEDC9D",
"N&	c #E5C97C",
"O&	c #DBB65E",
"P&	c #D2AB52",
"Q&	c #DCAB4A",
"R&	c #DDAB4D",
"S&	c #DFAF5C",
"T&	c #E1B76B",
"U&	c #E4C079",
"V&	c #E6C581",
"W&	c #E6C681",
"X&	c #E4C47B",
"Y&	c #E1BE6F",
"Z&	c #DDB763",
"`&	c #D8B25B",
" *	c #D2AB56",
".*	c #CC923C",
"+*	c #CE933F",
"@*	c #CE9743",
"#*	c #CE9A45",
"$*	c #CF9F47",
"%*	c #CDA24D",
"                          . + @ # $                             ",
"                    % & * = - ; > , ' ) ! ~                     ",
"                { ] ^ / ( _ : < [ } | 1 2 3 4 5                 ",
"            6 7 8 9 0 a b c d e f g h i j k l m n               ",
"          o p q r s t u v w x y z A B C D E F G H I             ",
"        J K L M N O g P Q R S T U V W X Y Z `  ...+.@.          ",
"      #.$.%.&.x *.i =.-.;.>.,.'.).!.~.{.].^./.(._.:.<.[.        ",
"      }.|.1.z 2.3.4.5.6.7.8.9.0.a.b.c.d.e.f.g.h.i.j.k.l.m.      ",
"    n.o.p.q.D r.s.t.u.v.w.x.y.z.A.B.C.D.E.F.G.H.I.J.K.L.M.      ",
"    N.O.P.Q.F R.S.T.U.V.W.X.Y.Z.`. +.+++@+#+$+%+&+*+=+-+;+>+    ",
"  ,+'+)+!+~+{+]+^+/+(+_+:+<+[+}+|+1+2+3+4+5+6+7+8+9+9+0+a+b+    ",
"  c+d+e+^.f+g+h+i+j+k+l+m+n+o+p+q+r+s+t+u+v+w+x+y+z+9+9+A+B+C+  ",
"  D+E+F+G+H+I+J+K+L+M+N+O+P+Q+R+S+T+U+V+W+X+Y+Z+`+ @.@+@@@#@$@  ",
"%@&@*@=@-@;@>@,@'@)@!@~@{@]@^@/@(@_@:@<@[@}@|@1@2@3@4@5@6@7@8@  ",
"9@0@a@b@c@d@e@f@g@h@i@j@k@l@m@n@o@p@q@r@s@t@u@v@v@w@x@y@z@A@B@  ",
"C@D@E@F@G@H@I@J@K@L@M@N@O@P@Q@R@S@T@U@V@W@X@Y@Z@X@`@ #.#+#@###  ",
"$#%#&#*#9+=#-#;#>#,#'#)#!#~#{#]#^#/#(#_#:#<#[#}#^#|#1#2#3#4#5#  ",
"6#7#8#9+9+9#0#a#b#c#d#e#f#g#h#i#j#k#l#m#n#o#p#q#r#s#t#u#v#w#x#  ",
"y#z#A#9+9+B#C#D#E#F#G#H#I#J#K#L#M#N#O#P#Q#R#S#T#U#V#W#X#Y#Z#`#  ",
" $.$+$+@@$#$$$%$&$*$=$-$;$>$,$'$)$!$~${$]$^$/$($_$:$<$[$}$|$1$  ",
"  2$3$5@4$5$6$7$8$9$0$0$a$b$c$d$e$f$g$h$i$j$k$l$m$n$o$p$q$r$s$  ",
"  t$u$v$z@w$x$y$z$A$A$A$B$C$D$E$F$G$H$I$J$K$L$M$N$O$P$Q$R$S$    ",
"    T$U$+#V$W$X$Y$Z$`$ %.%+%@%#%$%%%&%*%=%-%;%>%,%'%)%!%~%{%    ",
"    ]%^%W$/%(%_%:%<%[%}%|%1%2%3%4%5%6%7%8%9%0%a%b%c%d%e%f%g%    ",
"      h%i%j%k%l%m%n%o%p%q%r%s%t%u%v%w%x%y%z%A%B%C%D%E%F%G%      ",
"      H%I%J%K%L%M%N%O%P%Q%R%S%T%U%V%W%X%Y%Z%`% &.&+&@&#&        ",
"        $&%&&&*&=&-&;&>&,&'&)&!&~&{&]&^&/&(&_&:&<&[&}&          ",
"          |&1&2&3&)%4&5&6&7&8&`%9&0&a&b&c&d&e&f&g&h&            ",
"            i&j&k&l&m&n&o&p&q&_&r&s&t&u&v&w&x&y&z&              ",
"                A&B&C&D&E&F&G&H&I&J&K&L&M&N&O&P&                ",
"                    Q&R&S&T&U&V&W&X&Y&Z&`& *                    ",
"                          .*+*@*#*$*%*                          "};
